# AST/ASF file generated using VICON BodyLanguage
# -----------------------------------------------
:version 1.10
:name VICON
:units
  mass 1.0
  length 0.45
  angle deg
:documentation
   .ast/.asf automatically generated from VICON data using
   VICON BodyBuilder and BodyLanguage model FoxedUp or BRILLIANT.MOD
:root
   order TX TY TZ RX RY RZ
   axis XYZ
   position 0 0 0  
   orientation 0 0 0 
:bonedata
  begin
     id 1 
     name lhipjoint
     direction 0.547975 -0.797114 0.253638 
     length 2.36201 
     axis 0 0 0  XYZ
  end
  begin
     id 2 
     name lfemur
     direction 0.34202 -0.939693 0  
     length 7.69075  
     axis 0 0 20  XYZ
    dof rx ry rz
    limits (-160.0 20.0)
           (-70.0 70.0)
           (-60.0 70.0)
  end
  begin
     id 3 
     name ltibia
     direction 0.34202 -0.939693 0   
     length 7.91399   
     axis 0 0 20   XYZ
    dof rx
    limits (-10.0 170.0)
  end
  begin
     id 4 
     name lfoot
     direction 0.0705293 -0.193778 0.978507   
     length 2.13618   
     axis -90 7.62852e-016 20   XYZ
    dof rx rz
    limits (-45.0 90.0)
           (-70.0 20.0)
  end
  begin
     id 5 
     name ltoes
     direction 1.53592e-011 -4.21925e-011 1   
     length 1.07518   
     axis -90 7.62852e-016 20   XYZ
    dof rx
    limits (-90.0 20.0)
  end
  begin
     id 6 
     name rhipjoint
     direction -0.57 -0.782963 0.249136   
     length 2.4047  
     axis 0 0 0  XYZ 
  end
  begin
     id 7 
     name rfemur
     direction -0.34202 -0.939693 0   
     length 7.51486   
     axis 0 0 -20   XYZ
    dof rx ry rz
    limits (-160.0 20.0)
           (-70.0 70.0)
           (-70.0 60.0)
  end
  begin
     id 8 
     name rtibia
     direction -0.34202 -0.939693 0   
     length 8.08317   
     axis 0 0 -20   XYZ
    dof rx
    limits (-10.0 170.0)
 end
 begin
     id 9 
     name rfoot
     direction -0.104954 -0.281256 0.953876   
     length 2.30343  
     axis -90 -7.62852e-016 -20   XYZ
    dof rx rz
    limits (-45.0 90.0)
           (-20.0 70.0)
  end
  begin
     id 10 
     name rtoes
     direction -1.53556e-011 -4.21922e-011 1   
     length 1.14803   
     axis -90 -7.62852e-016 -20   XYZ
    dof rx
    limits (-90.0 20.0)
  end
  begin
     id 11 
     name lowerback
     direction -0.0152855 0.99353 -0.11254   
     length 2.05311   
     axis 0 0 0   XYZ
    dof rx ry rz
    limits (-20.0 45.0)
           (-30.0 30.0)
           (-30.0 30.0)
  end
  begin
     id 12 
     name upperback
     direction -0.00157509 0.999443 -0.033332   
     length 2.06353   
     axis 0 0 0   XYZ
    dof rx ry rz
    limits (-20.0 45.0)
           (-30.0 30.0)
           (-30.0 30.0)
  end
  begin
     id 13 
     name thorax
     direction 0.00577788 0.999804 0.0189484   
     length 2.08472   
     axis 0 0 0   XYZ
    dof rx ry rz
    limits (-20.0 45.0)
           (-30.0 30.0)
           (-30.0 30.0)
  end
  begin
     id 14 
     name lowerneck
     direction -1.09301e-005 0.994719 0.10264   
     length 1.76249   
     axis 0 0 0   XYZ
    dof rx ry rz
    limits (-20.0 45.0)
           (-30.0 30.0)
           (-30.0 30.0)
  end
  begin
     id 15 
     name upperneck
     direction 0.0495018 0.988526 -0.142706   
     length 1.77897   
     axis 0 0 0   XYZ
    dof rx ry rz
    limits (-20.0 45.0)
           (-30.0 30.0)
           (-30.0 30.0)
  end
  begin
     id 16
     name head
     direction 0.0142736 0.998114 -0.0597101  
     length 1.78934  
     axis 0 0 0   XYZ
    dof rx ry rz
    limits (-20.0 45.0)
           (-30.0 30.0)
           (-30.0 30.0)
  end
  begin
     id 17 
     name lclavicle
     direction 0.918111 0.396107 -0.0130883  
     length 3.37276  
     axis 0 0 0   XYZ
    dof ry rz
    limits (-20.0 10.0)
           (0.0 20.0)
  end
  begin
     id 18 
     name lhumerus
     direction 1 -4.48975e-011 -3.26108e-027   
     length 5.34298   
     axis 180 -30 -90   XYZ
    dof rx ry rz
    limits (-60.0 90.0)
           (-90.0 90.0)
           (-90.0 90.0)
  end
  begin
     id 19
     name lradius
     direction 1 -4.48964e-011 -8.84413e-028   
     length 3.67262   
     axis 180 -30 -90   XYZ
    dof rx
    limits (-10.0 170.0)
  end
  begin
     id 20
     name lwrist
     direction 1 -4.48991e-011 -1.24264e-027   
     length 1.83631   
     axis -2.17013e-015 90 90   XYZ
    dof ry
    limits (-180.0 0.0)
 end
  begin
     id 21 
     name lhand
     direction 1 -4.48855e-011 -2.48528e-027   
     length 0.599298   
     axis 1.58582e-015 90 90   XYZ
    dof rx rz
    limits (-90.0 90.0)
           (-45.0 45.0)
  end
  begin
     id 22 
     name lfingers
     direction 1 -4.48811e-011 -4.97056e-027   
     length 0.48317   
     axis 3.17164e-015 90 90   XYZ
    dof rx
    limits (0.0 90.0)
  end
  begin
     id 23
     name lthumb
     direction 0.707107 -6.34882e-011 0.707107   
     length 0.693738   
     axis -90 45 2.85299e-015   XYZ
    dof rx rz
    limits (-45.0 45.0)
           (-45.0 45.0)
  end
  begin
     id 24 
     name rclavicle
     direction -0.920511 0.384752 -0.0680135   
     length 3.43787  
     axis 0 0 0   XYZ 
    dof ry rz
    limits (-10.0 20.0)
           (-20.0 0.0)
  end
  begin
     id 25 
     name rhumerus
     direction -0.999976 -0.00330524 0.00603274  
     length 5.5498   
     axis 180 30 90   XYZ
    dof rx ry rz
    limits (-90.0 60.0)
           (-90.0 90.0)
           (-90.0 90.0)
  end
  begin
     id 26 
     name rradius
     direction -1 -4.48967e-011 8.62438e-027   
     length 3.69401   
     axis 180 30 90   XYZ
    dof rx
    limits (-10.0 170.0)
  end
  begin
     id 27 
     name rwrist
     direction -1 -4.4897e-011 9.54866e-027   
     length 1.84701   
     axis -7.69462e-015 -90 -90   XYZ
    dof ry
    limits (-180.0 0.0)
  end
  begin
     id 28
     name rhand
     direction -1 -4.48982e-011 1.90973e-026   
     length 0.638113   
     axis -1.21857e-014 -90 -90   XYZ
    dof rx rz
    limits (-90.0 90.0)
           (-45.0 45.0)
  end
  begin
     id 29
     name rfingers
     direction -1 -4.48936e-011 3.81946e-026   
     length 0.514463   
     axis -2.43714e-014 -90 -90   XYZ
    dof rx
    limits (0.0 90.0)
  end
  begin
     id 30
     name rthumb
     direction -0.707107 -6.34942e-011 0.707107   
     length 0.738669   
     axis -90 -45 -2.85299e-015   XYZ
    dof rx rz
    limits (-45.0 45.0)
           (-45.0 45.0)
  end
:hierarchy
  begin
    root lhipjoint rhipjoint lowerback
    lhipjoint lfemur
    lfemur ltibia
    ltibia lfoot
    lfoot ltoes
    rhipjoint rfemur
    rfemur rtibia
    rtibia rfoot
    rfoot rtoes
    lowerback upperback
    upperback thorax
    thorax lowerneck lclavicle rclavicle
    lowerneck upperneck
    upperneck head
    lclavicle lhumerus
    lhumerus lradius
    lradius lwrist
    lwrist lhand lthumb
    lhand lfingers
    rclavicle rhumerus
    rhumerus rradius
    rradius rwrist
    rwrist rhand rthumb
    rhand rfingers
  end

#!OML:ASF F:\twosubjects\two\Thursday\Session 1\Rory.ASF
:FULLY-SPECIFIED
:DEGREES
162
root 17.5025 18.3454 -10.5767 -176.307 0.149984 178.706
lowerback 1.22979 -0.327197 -1.28571
upperback 1.21575 -0.417259 -0.472997
thorax 0.560974 -0.204507 0.239465
lowerneck -13.2726 -1.46531 -0.0866744
upperneck 5.05012 -2.38065 10.8917
head 3.82918 -0.373155 3.21403
rclavicle -1.93815e-015 -1.2921e-015
rhumerus -34.9129 -18.2154 -75.3571
rradius 23.2789
rwrist 24.9137
rhand -18.6684 22.4827
rfingers 7.12502
rthumb 7.62518 -7.35983
lclavicle -1.93815e-015 -1.2921e-015
lhumerus -37.2398 47.7911 57.9716
lradius 26.8041
lwrist 33.0695
lhand -10.7039 52.6913
lfingers 7.12502
lthumb 15.3057 82.1049
rfemur -13.011 0.832183 22.8539
rtibia 31.046
rfoot -14.1049 -8.17809
rtoes -4.2326
lfemur -19.5109 4.3284 -19.3343
ltibia 66.4761
lfoot -0.657148 7.58735
ltoes 1.62134
163
root 17.499 18.3445 -10.7091 -176.028 0.688442 179.083
lowerback 1.45228 -0.0888646 -0.667952
upperback 1.09058 -0.102312 -0.474929
thorax 0.302479 -0.043542 -0.110348
lowerneck -13.5444 -1.45437 -0.164006
upperneck 5.07501 -2.36175 10.7725
head 3.87839 -0.36676 3.19176
rclavicle 1.963e-015 4.67144e-015
rhumerus -34.3811 -17.0545 -76.1264
rradius 24.8251
rwrist 23.2509
rhand -19.4772 27.9739
rfingers 7.12502
rthumb 6.84453 -1.89551
lclavicle 1.963e-015 4.67144e-015
lhumerus -42.0448 48.9774 53.7967
lradius 26.4074
lwrist 30.5495
lhand -9.30927 50.1106
lfingers 7.12502
lthumb 16.6487 79.4166
rfemur -13.0358 0.462719 23.2179
rtibia 31.3658
rfoot -14.5817 -7.36756
rtoes -3.50631
lfemur -21.0073 4.57837 -19.2421
ltibia 66.1853
lfoot -1.42634 7.64658
ltoes 2.1197
164
root 17.501 18.3302 -10.8473 -175.814 1.37133 179.452
lowerback 1.62626 0.117847 -0.193915
upperback 1.09499 0.177263 -0.463074
thorax 0.210016 0.0987265 -0.367545
lowerneck -14.2034 -1.34632 -0.141991
upperneck 5.34771 -2.25784 10.6423
head 4.06035 -0.294735 3.1596
rclavicle -1.96921e-015 -3.47873e-016
rhumerus -33.7001 -15.4998 -77.0967
rradius 26.3831
rwrist 21.638
rhand -18.6217 23.5453
rfingers 7.12502
rthumb 7.67031 -6.29557
lclavicle -1.96921e-015 -3.47873e-016
lhumerus -46.8566 49.7641 49.4462
lradius 26.3482
lwrist 28.7503
lhand -6.23051 46.0836
lfingers 7.12502
lthumb 19.6108 75.1145
rfemur -12.918 0.610169 23.5706
rtibia 31.5831
rfoot -14.8538 -6.7796
rtoes -3.6906
lfemur -22.3677 5.13432 -19.0991
ltibia 65.6902
lfoot -2.25906 7.5405
ltoes 2.98408
165
root 17.503 18.3168 -10.9921 -175.791 1.98607 179.487
lowerback 1.91322 0.370149 -0.0963613
upperback 1.07366 0.515244 -0.54799
thorax 0.0308837 0.269044 -0.516168
lowerneck -13.9227 -1.37036 -0.0242497
upperneck 5.00773 -2.25829 10.4117
head 3.90492 -0.329728 3.06489
rclavicle -1.21756e-015 -6.95746e-015
rhumerus -33.3836 -13.8207 -77.9114
rradius 28.0233
rwrist 19.597
rhand -18.6576 22.0506
rfingers 7.12502
rthumb 7.63565 -7.79158
lclavicle -1.21756e-015 -6.95746e-015
lhumerus -51.5487 49.6706 45.2802
lradius 26.6017
lwrist 28.4523
lhand -1.53365 40.7466
lfingers 7.12502
lthumb 24.1206 69.2503
rfemur -12.5401 0.925074 23.5769
rtibia 31.7809
rfoot -15.0724 -6.52615
rtoes -6.16936
lfemur -23.3571 5.64852 -19.3157
ltibia 64.9542
lfoot -2.75627 7.64704
ltoes 4.60324
166
root 17.5046 18.3224 -11.1356 -175.653 2.4444 179.359
lowerback 2.12178 0.533295 -0.163285
upperback 1.07864 0.733317 -0.671744
thorax -0.0781167 0.379339 -0.611582
lowerneck -13.7273 -1.43915 0.000524338
upperneck 4.47863 -2.28663 10.1863
head 3.70844 -0.382932 2.98491
rclavicle -3.97569e-016 -7.95139e-016
rhumerus -32.9108 -12.4893 -78.6057
rradius 29.6826
rwrist 17.8579
rhand -19.0659 21.0902
rfingers 7.12502
rthumb 7.24151 -8.7659
lclavicle -3.97569e-016 -7.95139e-016
lhumerus -55.616 49.1398 41.7046
lradius 26.9604
lwrist 28.7219
lhand 4.62609 34.4906
lfingers 7.12502
lthumb 30.0133 62.0754
rfemur -12.3046 0.724136 23.4048
rtibia 31.9255
rfoot -15.1618 -6.11595
rtoes -7.45619
lfemur -24.3453 5.85873 -19.6807
ltibia 63.9502
lfoot -3.24225 7.84603
ltoes 8.02794
167
root 17.5049 18.3289 -11.2792 -175.407 2.9354 179.524
lowerback 2.18164 0.604702 0.0414759
upperback 1.20254 0.836197 -0.662234
thorax 0.018949 0.433341 -0.718571
lowerneck -14.2589 -1.43487 -0.129342
upperneck 4.27706 -2.2429 10.0322
head 3.7286 -0.36524 2.96192
rclavicle 1.74931e-014 -1.49089e-015
rhumerus -32.0863 -11.2006 -79.2602
rradius 31.3445
rwrist 16.4589
rhand -19.0838 19.6363
rfingers 7.12502
rthumb 7.22426 -10.2203
lclavicle 1.74931e-014 -1.49089e-015
lhumerus -59.4366 49.0159 37.97
lradius 27.0227
lwrist 28.0692
lhand 15.9287 26.7935
lfingers 7.12502
lthumb 40.7251 51.7966
rfemur -12.1672 0.197642 23.495
rtibia 32.0016
rfoot -15.1257 -5.29592
rtoes -7.89237
lfemur -25.3983 5.94301 -19.7134
ltibia 62.7746
lfoot -4.5474 7.92143
ltoes 8.85268
168
root 17.5056 18.3223 -11.4202 -175.154 3.57369 179.83
lowerback 2.24742 0.843049 0.33513
upperback 1.238 1.16022 -0.652674
thorax 0.0282353 0.597088 -0.880788
lowerneck -14.4939 -1.42511 -0.0586147
upperneck 3.99224 -2.20175 9.82516
head 3.67235 -0.356577 2.88865
rclavicle -9.10682e-015 9.44227e-015
rhumerus -31.6515 -10.2555 -79.7093
rradius 33.0674
rwrist 15.0828
rhand -19.5809 20.3089
rfingers 7.12502
rthumb 6.74439 -9.5637
lclavicle -9.10682e-015 9.44227e-015
lhumerus -62.3576 47.8386 35.3631
lradius 27.2601
lwrist 27.8004
lhand 13.9877 26.4399
lfingers 7.12502
lthumb 38.8979 51.9891
rfemur -11.9378 0.224113 23.6987
rtibia 31.9645
rfoot -15.223 -4.59384
rtoes -8.34559
lfemur -26.4329 6.20046 -19.6336
ltibia 61.4855
lfoot -5.80389 7.97152
ltoes 7.39043
169
root 17.5134 18.3201 -11.5592 -174.823 4.22997 179.847
lowerback 2.32511 1.14018 0.229539
upperback 1.18156 1.55381 -0.758115
thorax -0.0658084 0.793319 -0.940435
lowerneck -14.4296 -1.44767 0.0618954
upperneck 3.45561 -2.17698 9.70829
head 3.49348 -0.361368 2.8325
rclavicle 8.05078e-015 -6.26172e-015
rhumerus -31.3603 -9.53136 -80.1129
rradius 34.6735
rwrist 13.5159
rhand -20.683 23.3461
rfingers 7.12502
rthumb 5.68042 -6.55777
lclavicle 8.05078e-015 -6.26172e-015
lhumerus -64.1402 45.6782 34.2404
lradius 27.9563
lwrist 28.6551
lhand 14.057 25.6868
lfingers 7.12502
lthumb 38.9632 51.2173
rfemur -11.7226 1.25234 23.6586
rtibia 31.7575
rfoot -15.3306 -4.6585
rtoes -5.12957
lfemur -27.4686 6.44853 -19.8629
ltibia 60.0129
lfoot -6.7346 8.01331
ltoes 7.75349
170
root 17.5166 18.3339 -11.7099 -174.495 4.80048 179.856
lowerback 2.31118 1.32508 0.161081
upperback 1.19848 1.79989 -0.790987
thorax -0.0372624 0.916674 -0.940634
lowerneck -14.5518 -1.5264 -0.111527
upperneck 2.98805 -2.19857 9.6126
head 3.37138 -0.388835 2.82812
rclavicle -8.59744e-015 -1.98785e-016
rhumerus -30.9038 -8.26285 -80.4145
rradius 36.2565
rwrist 11.5559
rhand -21.0376 23.6829
rfingers 7.12502
rthumb 5.33807 -6.22988
lclavicle -8.59744e-015 -1.98785e-016
lhumerus -66.0575 44.1394 32.7633
lradius 28.769
lwrist 29.7427
lhand 13.8615 26.2605
lfingers 7.12502
lthumb 38.779 51.8434
rfemur -11.4516 1.79549 23.5799
rtibia 31.3951
rfoot -15.1988 -4.54315
rtoes -4.74301
lfemur -28.3187 6.37417 -20.0748
ltibia 58.2758
lfoot -7.55747 8.274
ltoes 8.27959
171
root 17.5122 18.3491 -11.8653 -174.275 5.2873 180.229
lowerback 2.31137 1.53305 0.616119
upperback 1.26981 2.0872 -0.74426
thorax 0.0552363 1.06317 -1.15221
lowerneck -14.5831 -1.63675 -0.372823
upperneck 2.61205 -2.26212 9.51902
head 3.26596 -0.440119 2.83581
rclavicle -3.15571e-015 4.96962e-016
rhumerus -30.6998 -7.16568 -80.5271
rradius 38.0021
rwrist 9.93578
rhand -21.3298 21.9857
rfingers 7.12502
rthumb 5.05594 -7.93403
lclavicle -3.15571e-015 4.96962e-016
lhumerus -67.3006 42.499 31.8601
lradius 29.4419
lwrist 31.4141
lhand 12.2846 28.005
lfingers 7.12502
lthumb 37.2898 53.994
rfemur -10.9827 1.66585 23.8692
rtibia 31.0022
rfoot -15.0408 -4.12767
rtoes -7.38428
lfemur -28.9238 6.18828 -19.8428
ltibia 56.3011
lfoot -7.83013 8.77813
ltoes 6.25401
172
root 17.5085 18.3622 -12.0186 -174.023 5.79519 180.494
lowerback 2.31217 1.86456 1.01487
upperback 1.23471 2.53573 -0.818541
thorax 0.050733 1.28901 -1.46081
lowerneck -14.2935 -1.15856 -0.76822
upperneck 1.96028 -2.53795 9.61015
head 3.0419 -1.05552 2.88271
rclavicle 1.99282e-014 -6.36111e-015
rhumerus -30.8688 -7.20319 -80.4149
rradius 39.691
rwrist 9.28924
rhand -22.5754 24.7572
rfingers 7.12502
rthumb 3.8531 -5.18768
lclavicle 1.99282e-014 -6.36111e-015
lhumerus -67.5371 40.0354 32.0892
lradius 29.9855
lwrist 32.7271
lhand 11.7885 28.6157
lfingers 7.12502
lthumb 36.8206 54.7264
rfemur -10.4985 1.81777 24.0602
rtibia 30.596
rfoot -14.9289 -3.95322
rtoes -5.96852
lfemur -29.4961 6.19031 -19.6933
ltibia 54.1192
lfoot -7.72861 9.15576
ltoes 4.34876
173
root 17.5121 18.3737 -12.1721 -173.673 6.16539 180.406
lowerback 2.16376 2.13547 0.881969
upperback 1.18133 2.89243 -0.953315
thorax 0.0912291 1.46684 -1.52634
lowerneck -13.8728 -1.37919 -0.969079
upperneck 0.976378 -2.72916 9.38196
head 2.9787 -1.22292 3.12617
rclavicle 1.63997e-015 2.98177e-015
rhumerus -30.9881 -7.31672 -80.2941
rradius 41.3683
rwrist 8.47024
rhand -23.0309 24.3171
rfingers 7.12502
rthumb 3.41329 -5.63531
lclavicle 1.63997e-015 2.98177e-015
lhumerus -67.8351 37.479 32.4463
lradius 30.8802
lwrist 33.2723
lhand 12.4433 28.3741
lfingers 7.12502
lthumb 37.4398 54.3236
rfemur -10.1712 1.76264 23.8847
rtibia 30.1755
rfoot -14.6493 -3.77323
rtoes -6.19067
lfemur -30.1015 6.0753 -19.8778
ltibia 51.7501
lfoot -7.85357 9.54341
ltoes 4.959
